<?xml version="1.0" standalone="no"?><!DOCTYPE svg PUBLIC "-//W3C//DTD SVG 1.1//EN" "http://www.w3.org/Graphics/SVG/1.1/DTD/svg11.dtd"><svg class="icon" width="16px" height="16.00px" viewBox="0 0 1024 1024" version="1.1" xmlns="http://www.w3.org/2000/svg"><path d="M442.228364 986.298182C243.153455 986.298182 93.090909 908.427636 93.090909 805.236364c0-54.365091 41.146182-102.865455 115.898182-136.657455 20.107636-9.076364 44.032-0.930909 53.573818 18.199273 9.588364 19.130182 1.024 41.890909-19.083636 51.013818-43.845818 19.781818-70.004364 45.056-70.004364 67.444364 0 43.613091 102.167273 104.494545 268.660364 104.494545 166.446545 0 268.660364-60.881455 268.660363-104.494545 0-23.924364-30.254545-51.293091-79.080727-71.400728-20.386909-8.378182-29.789091-30.906182-20.898909-50.269091 8.843636-19.456 32.488727-28.392727 52.922182-19.921454 81.082182 33.373091 127.534545 85.038545 127.534545 141.591273 0.093091 103.237818-149.969455 181.061818-349.044363 181.061818z" fill="#365eb7" /><path d="M956.555636 154.158545a38.4 38.4 0 0 0-28.858181-22.807272L473.367273 53.387636a38.260364 38.260364 0 0 0-31.185455 8.517819 38.167273 38.167273 0 0 0-13.684363 29.27709l-0.558546 126.045091-0.837818 196.468364-0.232727 60.416-1.163637 295.470545a38.493091 38.493091 0 0 0 76.939637 0.372364l1.070545-252.788364 374.132364 40.029091a38.353455 38.353455 0 0 0 34.629818-14.987636 38.4 38.4 0 0 0 5.259636-37.329455L852.712727 339.083636 953.111273 190.836364a38.306909 38.306909 0 0 0 3.444363-36.677819z m-179.060363 158.347637a38.446545 38.446545 0 0 0-3.956364 35.700363l49.152 125.672728-318.882909-34.117818 1.210182-302.731637 350.813091 60.043637-78.336 115.432727z" fill="#365eb7" /></svg>